<?xml version="1.0" encoding="UTF-8" standalone="no"?>
<!-- Created with Inkscape (http://www.inkscape.org/) -->

<svg
   width="213.26871mm"
   height="50.551636mm"
   viewBox="0 0 213.26871 50.551636"
   version="1.1"
   id="svg5"
   sodipodi:docname="cdil-logo-white2.svg"
   inkscape:version="1.1.1 (3bf5ae0d25, 2021-09-20)"
   xmlns:inkscape="http://www.inkscape.org/namespaces/inkscape"
   xmlns:sodipodi="http://sodipodi.sourceforge.net/DTD/sodipodi-0.dtd"
   xmlns="http://www.w3.org/2000/svg"
   xmlns:svg="http://www.w3.org/2000/svg"
   xmlns:rdf="http://www.w3.org/1999/02/22-rdf-syntax-ns#"
   xmlns:cc="http://creativecommons.org/ns#"
   xmlns:dc="http://purl.org/dc/elements/1.1/">
  <sodipodi:namedview
     id="namedview21"
     pagecolor="#ffffff"
     bordercolor="#666666"
     borderopacity="1.0"
     inkscape:pageshadow="2"
     inkscape:pageopacity="0.0"
     inkscape:pagecheckerboard="0"
     inkscape:document-units="mm"
     showgrid="false"
     inkscape:zoom="1.553244"
     inkscape:cx="402.70557"
     inkscape:cy="95.606359"
     inkscape:window-width="2560"
     inkscape:window-height="1411"
     inkscape:window-x="-9"
     inkscape:window-y="-9"
     inkscape:window-maximized="1"
     inkscape:current-layer="svg5" />
  <title
     id="title48129">Center for Digital Inquiry and Learning</title>
  <defs
     id="defs2">
    <rect
       x="496.32599"
       y="384.45978"
       width="252.02045"
       height="225.01826"
       id="rect21553" />
    <rect
       x="126.01023"
       y="344.5994"
       width="686.62714"
       height="407.60452"
       id="rect1485" />
  </defs>
  <g
     id="layer1"
     transform="translate(5.9259061,-100.90509)">
    <g
       aria-label="CD?L"
       transform="matrix(0.26458333,0,0,0.26458333,-42.676634,-3.7422681)"
       id="text1483"
       style="font-size:264px;line-height:1.25;white-space:pre;shape-inside:url(#rect1485)">
      <path
         d="m 301.06445,536.41211 v 28.35937 q -28.35937,15.46875 -65.48437,15.46875 -30.16406,0 -51.17578,-12.11718 -21.01172,-12.11719 -33.25782,-33.38672 -12.24609,-21.26953 -12.24609,-46.01953 0,-39.31641 27.97266,-66.12891 28.10156,-26.8125 69.22265,-26.8125 28.35938,0 63.03516,14.82422 v 27.71484 q -31.58203,-18.04687 -61.74609,-18.04687 -30.9375,0 -51.4336,19.59375 -20.36719,19.46484 -20.36719,48.85547 0,29.64843 20.10938,48.72656 20.10937,19.07812 51.43359,19.07812 32.74219,0 63.9375,-20.10937 z"
         style="font-family:'Gill Sans MT';-inkscape-font-specification:'Gill Sans MT';fill:#ffffff"
         id="path838" />
      <path
         d="M 333.0332,577.91992 V 398.0957 h 60.71485 q 36.73828,0 58.13672,11.08594 21.39843,10.95703 34.03125,32.35547 12.63281,21.39844 12.63281,46.66406 0,18.04688 -6.96094,34.54688 -6.96094,16.5 -19.85156,29.0039 -13.14844,12.89063 -30.55078,19.46485 -10.1836,3.99609 -18.69141,5.41406 -8.50781,1.28906 -32.48437,1.28906 z m 58.00782,-156.8789 h -32.22657 v 133.93359 h 33 q 19.33594,0 30.03516,-2.57813 10.69922,-2.70703 17.78906,-6.70312 7.21875,-4.125 13.14844,-10.05469 19.07812,-19.33594 19.07812,-48.85547 0,-29.0039 -19.59375,-47.30859 -7.21875,-6.83203 -16.6289,-11.21484 -9.28125,-4.38282 -17.66016,-5.80079 -8.3789,-1.41796 -26.9414,-1.41796 z"
         style="font-family:'Gill Sans MT';-inkscape-font-specification:'Gill Sans MT';fill:#ffffff"
         id="path840" />
      <path
         d="m 528.06836,423.74805 16.88672,-28.23047 q 20.88281,0.77344 31.71094,11.73047 10.82812,10.82812 10.82812,26.8125 0,10.3125 -4.25391,21.91406 -4.125,11.47266 -18.6914,33.77344 -16.88672,26.03906 -16.88672,36.99609 0,1.67578 0.77344,5.28516 -8.76563,-3.9961 -12.63282,-9.53907 -3.73828,-5.67187 -3.73828,-15.08203 0,-9.02343 2.96485,-16.11328 3.09375,-7.08984 14.69531,-25.26562 11.08594,-17.53125 11.08594,-29.13282 0,-7.99218 -5.02735,-12.63281 -4.89843,-4.76953 -13.14843,-4.76953 -6.1875,0 -14.56641,4.25391 z m 39.31641,141.02343 q 0,6.57422 -4.64063,11.08594 -4.64062,4.38281 -11.47266,4.38281 -6.44531,0 -10.82812,-4.38281 -4.38281,-4.38281 -4.38281,-10.82812 0,-6.70313 4.51172,-11.34375 4.51171,-4.76953 10.95703,-4.76953 6.70312,0 11.21484,4.64062 4.64063,4.51172 4.64063,11.21484 z"
         style="font-family:'Gill Sans MT';-inkscape-font-specification:'Gill Sans MT';fill:#ffffff"
         id="path842" />
      <path
         d="m 618.68945,398.0957 h 25.78125 v 156.6211 h 81.08203 v 23.46093 H 618.68945 Z"
         style="font-family:'Gill Sans MT';-inkscape-font-specification:'Gill Sans MT';fill:#ffffff"
         id="path844" />
    </g>
    <g
       aria-label="Center for
Digital
Inquiry and 
Learning"
       transform="matrix(0.26458333,0,0,0.26458333,27.896907,-2.0412371)"
       id="text21551"
       style="font-size:40px;line-height:1.25;white-space:pre;shape-inside:url(#rect21553)">
      <path
         d="m 522.84961,413.52148 v 4.29688 q -4.29688,2.34375 -9.92188,2.34375 -4.57031,0 -7.7539,-1.83594 -3.1836,-1.83594 -5.03906,-5.05859 -1.85547,-3.22266 -1.85547,-6.97266 0,-5.95703 4.23828,-10.01953 4.25781,-4.0625 10.48828,-4.0625 4.29687,0 9.55078,2.24609 v 4.19922 q -4.78516,-2.73437 -9.35547,-2.73437 -4.6875,0 -7.79297,2.96875 -3.08593,2.94922 -3.08593,7.40234 0,4.49219 3.04687,7.38281 3.04688,2.89063 7.79297,2.89063 4.96094,0 9.6875,-3.04688 z"
         style="font-family:'Gill Sans MT';-inkscape-font-specification:'Gill Sans MT';fill:#ffffff"
         id="path847" />
      <path
         d="M 542.47852,411.17773 H 529.8418 q 0.13672,2.57813 1.71875,4.10157 1.60156,1.52343 4.12109,1.52343 3.51563,0 6.48438,-2.1875 v 3.47657 q -1.64063,1.09375 -3.26172,1.5625 -1.60157,0.46875 -3.76953,0.46875 -2.96875,0 -4.80469,-1.23047 -1.83594,-1.23047 -2.94922,-3.30078 -1.09375,-2.08985 -1.09375,-4.82422 0,-4.10156 2.32422,-6.66016 2.32422,-2.57812 6.03515,-2.57812 3.57422,0 5.70313,2.5 2.12891,2.5 2.12891,6.69922 z m -12.5586,-2.1289 h 9.04297 q -0.13672,-2.12891 -1.26953,-3.28125 -1.13281,-1.15235 -3.04688,-1.15235 -1.91406,0 -3.14453,1.15235 -1.21093,1.15234 -1.58203,3.28125 z"
         style="font-family:'Gill Sans MT';-inkscape-font-specification:'Gill Sans MT';fill:#ffffff"
         id="path849" />
      <path
         d="m 549.88086,401.88086 v 2.28516 q 2.38281,-2.63672 5.41016,-2.63672 1.67968,0 3.125,0.8789 1.44531,0.85938 2.1875,2.38282 0.76171,1.5039 0.76171,4.78515 v 10.27344 h -3.55468 v -10.23438 q 0,-2.7539 -0.83985,-3.92578 -0.83984,-1.1914 -2.8125,-1.1914 -2.51953,0 -4.27734,2.51953 v 12.83203 h -3.63281 v -17.96875 z"
         style="font-family:'Gill Sans MT';-inkscape-font-specification:'Gill Sans MT';fill:#ffffff"
         id="path851" />
      <path
         d="m 563.80664,404.73242 6.67969,-6.5625 v 3.71094 h 5.68359 v 3.20312 h -5.68359 v 8.8086 q 0,3.08594 2.55859,3.08594 1.91406,0 4.04297,-1.28907 v 3.32032 q -2.05078,1.15234 -4.47266,1.15234 -2.4414,0 -4.0625,-1.42578 -0.50781,-0.42969 -0.83984,-0.95703 -0.33203,-0.54688 -0.56641,-1.40625 -0.21484,-0.87891 -0.21484,-3.32032 v -7.96875 h -3.125 z"
         style="font-family:'Gill Sans MT';-inkscape-font-specification:'Gill Sans MT';fill:#ffffff"
         id="path853" />
      <path
         d="m 594.95898,411.17773 h -12.63671 q 0.13671,2.57813 1.71875,4.10157 1.60156,1.52343 4.12109,1.52343 3.51562,0 6.48437,-2.1875 v 3.47657 q -1.64062,1.09375 -3.26171,1.5625 -1.60157,0.46875 -3.76954,0.46875 -2.96875,0 -4.80468,-1.23047 -1.83594,-1.23047 -2.94922,-3.30078 -1.09375,-2.08985 -1.09375,-4.82422 0,-4.10156 2.32422,-6.66016 2.32422,-2.57812 6.03515,-2.57812 3.57422,0 5.70313,2.5 2.1289,2.5 2.1289,6.69922 z m -12.55859,-2.1289 h 9.04297 q -0.13672,-2.12891 -1.26953,-3.28125 -1.13281,-1.15235 -3.04688,-1.15235 -1.91406,0 -3.14453,1.15235 -1.21094,1.15234 -1.58203,3.28125 z"
         style="font-family:'Gill Sans MT';-inkscape-font-specification:'Gill Sans MT';fill:#ffffff"
         id="path855" />
      <path
         d="m 602.61523,401.88086 v 4.12109 l 0.19532,-0.3125 q 2.57812,-4.16015 5.15625,-4.16015 2.01172,0 4.19922,2.03125 l -1.875,3.125 q -1.85547,-1.75782 -3.4375,-1.75782 -1.71875,0 -2.98829,1.64063 -1.25,1.64062 -1.25,3.88672 v 9.39453 h -3.57421 v -17.96875 z"
         style="font-family:'Gill Sans MT';-inkscape-font-specification:'Gill Sans MT';fill:#ffffff"
         id="path857" />
      <path
         d="m 626.16992,401.88086 v -1.07422 q 0,-4.33594 1.83594,-6.46484 1.85547,-2.12891 4.43359,-2.12891 1.11328,0 2.63672,0.35156 v 3.47657 q -0.85937,-0.3125 -1.64062,-0.3125 -2.08985,0 -2.91016,1.11328 -0.80078,1.11328 -0.80078,3.96484 v 1.07422 h 3.20312 v 3.20312 h -3.20312 v 14.76563 h -3.55469 v -14.76563 h -2.57812 v -3.20312 z"
         style="font-family:'Gill Sans MT';-inkscape-font-specification:'Gill Sans MT';fill:#ffffff"
         id="path859" />
      <path
         d="m 643.96289,401.8418 q 4.10156,0 6.81641,2.65625 2.71484,2.63672 2.71484,6.64062 0,3.88672 -2.75391,6.46485 -2.7539,2.55859 -6.93359,2.55859 -4.04297,0 -6.75781,-2.59766 -2.71485,-2.61718 -2.71485,-6.52343 0,-3.94532 2.73438,-6.5625 2.75391,-2.63672 6.89453,-2.63672 z m -0.19531,3.20312 q -2.5586,0 -4.19922,1.67969 -1.64063,1.67969 -1.64063,4.27734 0,2.57813 1.67969,4.21875 1.67969,1.6211 4.31641,1.6211 2.61719,0 4.27734,-1.64063 1.67969,-1.66015 1.67969,-4.23828 0,-2.55859 -1.73828,-4.23828 -1.73828,-1.67969 -4.375,-1.67969 z"
         style="font-family:'Gill Sans MT';-inkscape-font-specification:'Gill Sans MT';fill:#ffffff"
         id="path861" />
      <path
         d="m 661.24805,401.88086 v 4.12109 l 0.19531,-0.3125 q 2.57812,-4.16015 5.15625,-4.16015 2.01172,0 4.19922,2.03125 l -1.875,3.125 q -1.85547,-1.75782 -3.4375,-1.75782 -1.71875,0 -2.98828,1.64063 -1.25,1.64062 -1.25,3.88672 v 9.39453 h -3.57422 v -17.96875 z"
         style="font-family:'Gill Sans MT';-inkscape-font-specification:'Gill Sans MT';fill:#ffffff"
         id="path863" />
      <path
         d="m 499.37305,470.19055 v -27.24609 h 9.19922 q 5.5664,0 8.80859,1.67969 3.24219,1.66015 5.15625,4.90234 1.91406,3.24219 1.91406,7.07031 0,2.73438 -1.05469,5.23438 -1.05468,2.5 -3.00781,4.39453 -1.99219,1.95312 -4.6289,2.94922 -1.54297,0.60547 -2.83204,0.82031 -1.28906,0.19531 -4.92187,0.19531 z m 8.78906,-23.76953 h -4.88281 v 20.29297 h 5 q 2.92968,0 4.55078,-0.39063 1.62109,-0.41015 2.69531,-1.01562 1.09375,-0.625 1.99219,-1.52344 2.89062,-2.92969 2.89062,-7.40234 0,-4.39453 -2.96875,-7.16797 -1.09375,-1.03516 -2.51953,-1.69922 -1.40625,-0.66406 -2.67578,-0.87891 -1.26953,-0.21484 -4.08203,-0.21484 z"
         style="font-family:'Gill Sans MT';-inkscape-font-specification:'Gill Sans MT';fill:#ffffff"
         id="path865" />
      <path
         d="m 530.68164,444.70227 q 0.87891,0 1.50391,0.60547 0.625,0.60547 0.625,1.48437 0,0.85938 -0.625,1.48438 -0.625,0.625 -1.50391,0.625 -0.82031,0 -1.44531,-0.625 -0.625,-0.64453 -0.625,-1.48438 0,-0.82031 0.625,-1.44531 0.625,-0.64453 1.44531,-0.64453 z m -1.75781,7.55859 h 3.55469 v 17.96875 h -3.55469 z"
         style="font-family:'Gill Sans MT';-inkscape-font-specification:'Gill Sans MT';fill:#ffffff"
         id="path867" />
      <path
         d="m 536.69727,458.4718 q 0,-2.87109 2.08984,-4.53125 2.10937,-1.67969 5.74219,-1.67969 h 7.40234 v 2.77344 h -3.63281 q 1.05469,1.07422 1.46484,1.95313 0.41016,0.8789 0.41016,2.01172 0,1.40625 -0.80078,2.77343 -0.80078,1.34766 -2.07032,2.07032 -1.25,0.72265 -4.12109,1.15234 -2.01172,0.29297 -2.01172,1.38672 0,0.625 0.74219,1.03515 0.76172,0.39063 2.73437,0.82032 3.30079,0.72265 4.23829,1.13281 0.95703,0.41016 1.71875,1.17187 1.28906,1.28907 1.28906,3.24219 0,2.5586 -2.28516,4.08203 -2.26562,1.52344 -6.07422,1.52344 -3.84765,0 -6.15234,-1.54297 -2.28516,-1.52344 -2.28516,-4.10156 0,-3.65234 4.51172,-4.70703 -1.79687,-1.15235 -1.79687,-2.28516 0,-0.85937 0.76172,-1.5625 0.78125,-0.70312 2.08984,-1.03515 -3.96484,-1.75782 -3.96484,-5.6836 z m 6.67968,-3.125 q -1.44531,0 -2.46093,0.97656 -1.01563,0.97657 -1.01563,2.34375 0,1.38672 0.99609,2.30469 0.9961,0.89844 2.51954,0.89844 1.5039,0 2.5,-0.91797 1.01562,-0.9375 1.01562,-2.32422 0,-1.40625 -1.01562,-2.34375 -1.01563,-0.9375 -2.53907,-0.9375 z m -0.83984,15.72266 q -1.79688,0 -2.94922,0.76172 -1.13281,0.76172 -1.13281,1.95312 0,2.77344 5,2.77344 2.36328,0 3.65234,-0.70313 1.3086,-0.68359 1.3086,-1.95312 0,-1.25 -1.64063,-2.05078 -1.64062,-0.78125 -4.23828,-0.78125 z"
         style="font-family:'Gill Sans MT';-inkscape-font-specification:'Gill Sans MT';fill:#ffffff"
         id="path869" />
      <path
         d="m 556.52148,444.70227 q 0.87891,0 1.50391,0.60547 0.625,0.60547 0.625,1.48437 0,0.85938 -0.625,1.48438 -0.625,0.625 -1.50391,0.625 -0.82031,0 -1.44531,-0.625 -0.625,-0.64453 -0.625,-1.48438 0,-0.82031 0.625,-1.44531 0.625,-0.64453 1.44531,-0.64453 z m -1.75781,7.55859 h 3.55469 v 17.96875 h -3.55469 z"
         style="font-family:'Gill Sans MT';-inkscape-font-specification:'Gill Sans MT';fill:#ffffff"
         id="path871" />
      <path
         d="m 560.93555,455.11243 6.67968,-6.5625 v 3.71093 h 5.6836 v 3.20313 h -5.6836 v 8.80859 q 0,3.08594 2.5586,3.08594 1.91406,0 4.04297,-1.28906 v 3.32031 q -2.05078,1.15234 -4.47266,1.15234 -2.44141,0 -4.0625,-1.42578 -0.50781,-0.42968 -0.83984,-0.95703 -0.33203,-0.54687 -0.56641,-1.40625 -0.21484,-0.8789 -0.21484,-3.32031 v -7.96875 h -3.125 z"
         style="font-family:'Gill Sans MT';-inkscape-font-specification:'Gill Sans MT';fill:#ffffff"
         id="path873" />
      <path
         d="m 588.06445,459.42883 v 7.63672 q 0,0.91797 0.625,0.91797 0.64453,0 2.01172,-0.95703 v 2.16797 q -1.21094,0.78125 -1.95312,1.05469 -0.72266,0.29296 -1.52344,0.29296 -2.28516,0 -2.69531,-1.79687 -2.26563,1.75781 -4.82422,1.75781 -1.875,0 -3.125,-1.23047 -1.25,-1.25 -1.25,-3.125 0,-1.69922 1.21094,-3.02734 1.23046,-1.34766 3.47656,-2.12891 l 4.55078,-1.5625 v -0.95703 q 0,-3.24219 -3.24219,-3.24219 -2.91015,0 -5.66406,3.00782 v -3.88672 q 2.07031,-2.44141 5.95703,-2.44141 2.91016,0 4.66797,1.52344 0.58594,0.48828 1.05469,1.30859 0.46875,0.80078 0.58593,1.6211 0.13672,0.80078 0.13672,3.0664 z m -3.49609,7.2461 v -5.33203 l -2.38281,0.91796 q -1.81641,0.72266 -2.57813,1.46485 -0.74219,0.72265 -0.74219,1.8164 0,1.11329 0.70313,1.81641 0.72266,0.70313 1.85547,0.70313 1.69922,0 3.14453,-1.38672 z"
         style="font-family:'Gill Sans MT';-inkscape-font-specification:'Gill Sans MT';fill:#ffffff"
         id="path875" />
      <path
         d="m 593.92383,442.94446 h 3.55469 v 27.28515 h -3.55469 z"
         style="font-family:'Gill Sans MT';-inkscape-font-specification:'Gill Sans MT';fill:#ffffff"
         id="path877" />
      <path
         d="m 499.37305,493.32446 h 3.90625 v 27.28516 h -3.90625 z"
         style="font-family:'Gill Sans MT';-inkscape-font-specification:'Gill Sans MT';fill:#ffffff"
         id="path879" />
      <path
         d="m 512.40039,502.64087 v 2.28516 q 2.38281,-2.63672 5.41016,-2.63672 1.67968,0 3.125,0.8789 1.44531,0.85938 2.1875,2.38282 0.76172,1.5039 0.76172,4.78515 v 10.27344 h -3.55469 v -10.23438 q 0,-2.7539 -0.83985,-3.92578 -0.83984,-1.1914 -2.8125,-1.1914 -2.51953,0 -4.27734,2.51953 v 12.83203 h -3.63281 v -17.96875 z"
         style="font-family:'Gill Sans MT';-inkscape-font-specification:'Gill Sans MT';fill:#ffffff"
         id="path881" />
      <path
         d="m 537.32227,502.64087 h 6.71875 v 27.12891 h -3.55469 v -9.47266 q -2.32422,0.625 -3.92578,0.625 -3.82813,0 -6.32813,-2.57813 -2.5,-2.57812 -2.5,-6.54296 0,-4.19922 2.59766,-6.67969 2.59765,-2.48047 6.99219,-2.48047 z m 3.16406,14.57031 v -11.25 h -2.2461 q -2.30468,0 -3.08593,0.21485 -0.76172,0.19531 -1.32813,0.5664 -0.5664,0.35156 -1.03515,0.87891 -1.46485,1.66015 -1.46485,4.10156 0,2.75391 1.64063,4.51172 1.66015,1.73828 4.27734,1.73828 0.60547,0 0.99609,-0.0781 0.39063,-0.0781 1.71875,-0.52735 l 0.27344,-0.0781 z"
         style="font-family:'Gill Sans MT';-inkscape-font-specification:'Gill Sans MT';fill:#ffffff"
         id="path883" />
      <path
         d="m 560.29102,520.60962 v -2.28516 q -1.13282,1.23047 -2.59766,1.91407 -1.44531,0.68359 -2.89063,0.68359 -1.69921,0 -3.14453,-0.83984 -1.42578,-0.85938 -2.16797,-2.30469 -0.72265,-1.46485 -0.72265,-4.84375 v -10.29297 h 3.55469 v 10.25391 q 0,2.83203 0.80078,3.96484 0.82031,1.11328 2.85156,1.11328 2.53906,0 4.31641,-2.48047 v -12.85156 h 3.55468 v 17.96875 z"
         style="font-family:'Gill Sans MT';-inkscape-font-specification:'Gill Sans MT';fill:#ffffff"
         id="path885" />
      <path
         d="m 570.68164,495.08228 q 0.87891,0 1.50391,0.60546 0.625,0.60547 0.625,1.48438 0,0.85937 -0.625,1.48437 -0.625,0.625 -1.50391,0.625 -0.82031,0 -1.44531,-0.625 -0.625,-0.64453 -0.625,-1.48437 0,-0.82031 0.625,-1.44531 0.625,-0.64453 1.44531,-0.64453 z m -1.75781,7.55859 h 3.55469 v 17.96875 h -3.55469 z"
         style="font-family:'Gill Sans MT';-inkscape-font-specification:'Gill Sans MT';fill:#ffffff"
         id="path887" />
      <path
         d="m 581.42383,502.64087 v 4.12109 l 0.19531,-0.3125 q 2.57813,-4.16015 5.15625,-4.16015 2.01172,0 4.19922,2.03125 l -1.875,3.125 q -1.85547,-1.75782 -3.4375,-1.75782 -1.71875,0 -2.98828,1.64063 -1.25,1.64062 -1.25,3.88672 v 9.39453 h -3.57422 v -17.96875 z"
         style="font-family:'Gill Sans MT';-inkscape-font-specification:'Gill Sans MT';fill:#ffffff"
         id="path889" />
      <path
         d="m 605.64258,502.64087 h 4.0039 l -12.71484,27.12891 h -3.96484 l 6.11328,-13.00782 -6.95313,-14.12109 h 4.04297 l 4.84375,10.13672 z"
         style="font-family:'Gill Sans MT';-inkscape-font-specification:'Gill Sans MT';fill:#ffffff"
         id="path891" />
      <path
         d="m 634.56836,509.80884 v 7.63672 q 0,0.91797 0.625,0.91797 0.64453,0 2.01172,-0.95704 v 2.16797 q -1.21094,0.78125 -1.95313,1.05469 -0.72265,0.29297 -1.52343,0.29297 -2.28516,0 -2.69532,-1.79688 -2.26562,1.75782 -4.82422,1.75782 -1.875,0 -3.125,-1.23047 -1.25,-1.25 -1.25,-3.125 0,-1.69922 1.21094,-3.02735 1.23047,-1.34765 3.47656,-2.1289 l 4.55079,-1.5625 v -0.95703 q 0,-3.24219 -3.24219,-3.24219 -2.91016,0 -5.66406,3.00781 v -3.88672 q 2.07031,-2.4414 5.95703,-2.4414 2.91015,0 4.66797,1.52343 0.58593,0.48829 1.05468,1.3086 0.46875,0.80078 0.58594,1.62109 0.13672,0.80078 0.13672,3.06641 z m -3.49609,7.24609 v -5.33203 l -2.38282,0.91797 q -1.8164,0.72266 -2.57812,1.46484 -0.74219,0.72266 -0.74219,1.81641 0,1.11328 0.70313,1.81641 0.72265,0.70312 1.85546,0.70312 1.69922,0 3.14454,-1.38672 z"
         style="font-family:'Gill Sans MT';-inkscape-font-specification:'Gill Sans MT';fill:#ffffff"
         id="path893" />
      <path
         d="m 643.9043,502.64087 v 2.28516 q 2.38281,-2.63672 5.41015,-2.63672 1.67969,0 3.125,0.8789 1.44532,0.85938 2.1875,2.38282 0.76172,1.5039 0.76172,4.78515 v 10.27344 h -3.55469 v -10.23438 q 0,-2.7539 -0.83984,-3.92578 -0.83984,-1.1914 -2.8125,-1.1914 -2.51953,0 -4.27734,2.51953 v 12.83203 h -3.63282 v -17.96875 z"
         style="font-family:'Gill Sans MT';-inkscape-font-specification:'Gill Sans MT';fill:#ffffff"
         id="path895" />
      <path
         d="m 672.3418,493.32446 h 3.57422 v 27.28516 h -7.59766 q -3.98438,0 -6.36719,-2.51953 -2.36328,-2.51953 -2.36328,-6.75781 0,-3.96485 2.48047,-6.52344 2.5,-2.5586 6.36719,-2.5586 1.79687,0 3.90625,0.76172 z m 0,24.23828 v -11.38671 q -1.66016,-0.83985 -3.35938,-0.83985 -2.65625,0 -4.23828,1.73828 -1.5625,1.73828 -1.5625,4.6875 0,2.77344 1.36719,4.27735 0.82031,0.89843 1.73828,1.21093 0.91797,0.3125 3.30078,0.3125 z"
         style="font-family:'Gill Sans MT';-inkscape-font-specification:'Gill Sans MT';fill:#ffffff"
         id="path897" />
      <path
         d="m 499.33398,543.70447 h 3.90625 v 23.73047 h 12.28516 v 3.55468 h -16.19141 z"
         style="font-family:'Gill Sans MT';-inkscape-font-specification:'Gill Sans MT';fill:#ffffff"
         id="path899" />
      <path
         d="m 533.76758,562.31775 h -12.63672 q 0.13672,2.57812 1.71875,4.10156 1.60156,1.52344 4.12109,1.52344 3.51563,0 6.48438,-2.1875 v 3.47656 q -1.64063,1.09375 -3.26172,1.5625 -1.60156,0.46875 -3.76953,0.46875 -2.96875,0 -4.80469,-1.23047 -1.83594,-1.23047 -2.94922,-3.30078 -1.09375,-2.08984 -1.09375,-4.82422 0,-4.10156 2.32422,-6.66015 2.32422,-2.57813 6.03516,-2.57813 3.57422,0 5.70312,2.5 2.12891,2.5 2.12891,6.69922 z m -12.5586,-2.12891 h 9.04297 q -0.13672,-2.1289 -1.26953,-3.28125 -1.13281,-1.15234 -3.04687,-1.15234 -1.91407,0 -3.14453,1.15234 -1.21094,1.15235 -1.58204,3.28125 z"
         style="font-family:'Gill Sans MT';-inkscape-font-specification:'Gill Sans MT';fill:#ffffff"
         id="path901" />
      <path
         d="m 548.9043,560.18884 v 7.63672 q 0,0.91797 0.625,0.91797 0.64453,0 2.01172,-0.95703 v 2.16797 q -1.21094,0.78125 -1.95313,1.05469 -0.72266,0.29296 -1.52344,0.29296 -2.28515,0 -2.69531,-1.79687 -2.26562,1.75781 -4.82422,1.75781 -1.875,0 -3.125,-1.23047 -1.25,-1.25 -1.25,-3.125 0,-1.69922 1.21094,-3.02734 1.23047,-1.34766 3.47656,-2.12891 l 4.55078,-1.5625 v -0.95703 q 0,-3.24219 -3.24218,-3.24219 -2.91016,0 -5.66407,3.00782 v -3.88672 q 2.07032,-2.44141 5.95703,-2.44141 2.91016,0 4.66797,1.52344 0.58594,0.48828 1.05469,1.30859 0.46875,0.80078 0.58594,1.6211 0.13672,0.80078 0.13672,3.0664 z m -3.4961,7.2461 v -5.33203 l -2.38281,0.91796 q -1.81641,0.72266 -2.57812,1.46485 -0.74219,0.72265 -0.74219,1.8164 0,1.11329 0.70312,1.81641 0.72266,0.70313 1.85547,0.70313 1.69922,0 3.14453,-1.38672 z"
         style="font-family:'Gill Sans MT';-inkscape-font-specification:'Gill Sans MT';fill:#ffffff"
         id="path903" />
      <path
         d="m 558.49414,553.02087 v 4.1211 l 0.19531,-0.3125 q 2.57813,-4.16016 5.15625,-4.16016 2.01172,0 4.19922,2.03125 l -1.875,3.125 q -1.85547,-1.75781 -3.4375,-1.75781 -1.71875,0 -2.98828,1.64062 -1.25,1.64063 -1.25,3.88672 v 9.39453 h -3.57422 v -17.96875 z"
         style="font-family:'Gill Sans MT';-inkscape-font-specification:'Gill Sans MT';fill:#ffffff"
         id="path905" />
      <path
         d="m 574.08008,553.02087 v 2.28516 q 2.38281,-2.63672 5.41015,-2.63672 1.67969,0 3.125,0.87891 1.44532,0.85937 2.1875,2.38281 0.76172,1.50391 0.76172,4.78516 v 10.27343 h -3.55468 v -10.23437 q 0,-2.75391 -0.83985,-3.92578 -0.83984,-1.19141 -2.8125,-1.19141 -2.51953,0 -4.27734,2.51953 v 12.83203 h -3.63281 v -17.96875 z"
         style="font-family:'Gill Sans MT';-inkscape-font-specification:'Gill Sans MT';fill:#ffffff"
         id="path907" />
      <path
         d="m 592.36133,545.46228 q 0.8789,0 1.5039,0.60547 0.625,0.60547 0.625,1.48437 0,0.85938 -0.625,1.48438 -0.625,0.625 -1.5039,0.625 -0.82031,0 -1.44531,-0.625 -0.625,-0.64453 -0.625,-1.48438 0,-0.82031 0.625,-1.44531 0.625,-0.64453 1.44531,-0.64453 z m -1.75781,7.55859 h 3.55468 v 17.96875 h -3.55468 z"
         style="font-family:'Gill Sans MT';-inkscape-font-specification:'Gill Sans MT';fill:#ffffff"
         id="path909" />
      <path
         d="m 602.84961,553.02087 v 2.28516 q 2.38281,-2.63672 5.41016,-2.63672 1.67968,0 3.125,0.87891 1.44531,0.85937 2.1875,2.38281 0.76171,1.50391 0.76171,4.78516 v 10.27343 h -3.55468 v -10.23437 q 0,-2.75391 -0.83985,-3.92578 -0.83984,-1.19141 -2.8125,-1.19141 -2.51953,0 -4.27734,2.51953 v 12.83203 h -3.63281 v -17.96875 z"
         style="font-family:'Gill Sans MT';-inkscape-font-specification:'Gill Sans MT';fill:#ffffff"
         id="path911" />
      <path
         d="m 618.37695,559.23181 q 0,-2.87109 2.08985,-4.53125 2.10937,-1.67969 5.74218,-1.67969 h 7.40235 v 2.77344 h -3.63281 q 1.05468,1.07422 1.46484,1.95313 0.41016,0.8789 0.41016,2.01172 0,1.40625 -0.80079,2.77343 -0.80078,1.34766 -2.07031,2.07032 -1.25,0.72265 -4.12109,1.15234 -2.01172,0.29297 -2.01172,1.38672 0,0.625 0.74219,1.03515 0.76172,0.39063 2.73437,0.82032 3.30078,0.72265 4.23828,1.13281 0.95703,0.41016 1.71875,1.17187 1.28907,1.28907 1.28907,3.24219 0,2.5586 -2.28516,4.08203 -2.26563,1.52344 -6.07422,1.52344 -3.84766,0 -6.15234,-1.54297 -2.28516,-1.52344 -2.28516,-4.10156 0,-3.65234 4.51172,-4.70703 -1.79688,-1.15235 -1.79688,-2.28516 0,-0.85937 0.76172,-1.5625 0.78125,-0.70312 2.08985,-1.03515 -3.96485,-1.75782 -3.96485,-5.6836 z m 6.67969,-3.125 q -1.44531,0 -2.46094,0.97656 -1.01562,0.97657 -1.01562,2.34375 0,1.38672 0.99609,2.30469 0.9961,0.89844 2.51953,0.89844 1.50391,0 2.5,-0.91797 1.01563,-0.9375 1.01563,-2.32422 0,-1.40625 -1.01563,-2.34375 -1.01562,-0.9375 -2.53906,-0.9375 z m -0.83984,15.72266 q -1.79688,0 -2.94922,0.76172 -1.13281,0.76172 -1.13281,1.95312 0,2.77344 5,2.77344 2.36328,0 3.65234,-0.70313 1.30859,-0.68359 1.30859,-1.95312 0,-1.25 -1.64062,-2.05078 -1.64063,-0.78125 -4.23828,-0.78125 z"
         style="font-family:'Gill Sans MT';-inkscape-font-specification:'Gill Sans MT';fill:#ffffff"
         id="path913" />
    </g>
  </g>
  <metadata
     id="metadata48127">
    <rdf:RDF>
      <cc:Work
         rdf:about="">
        <dc:title>Center for Digital Inquiry and Learning</dc:title>
      </cc:Work>
    </rdf:RDF>
  </metadata>
</svg>
